<svg xmlns="http://www.w3.org/2000/svg" width="40.506" height="45.94" viewBox="0 0 40.506 45.94">
  <path id="Icon_awesome-tooth" data-name="Icon awesome-tooth" d="M38.1,8.26a11.113,11.113,0,0,0-7.9-8.043C27.443-.5,24.8.655,22.555,2.305a5.731,5.731,0,0,1-.9.47l2.43,1.563A1.373,1.373,0,0,1,22.6,6.647L13.974,1.1A7.9,7.9,0,0,0,8.24.217,11.114,11.114,0,0,0,.344,8.26a11.256,11.256,0,0,0,1.845,9.477A17.838,17.838,0,0,1,5.3,26.949,91.646,91.646,0,0,0,7.1,38.991L7.77,41.9a2.611,2.611,0,0,0,5.081.046l2.958-11.879a3.514,3.514,0,0,1,6.824,0l2.958,11.879a2.611,2.611,0,0,0,5.081-.046l.669-2.913a91.77,91.77,0,0,0,1.8-12.042,17.835,17.835,0,0,1,3.114-9.212A11.247,11.247,0,0,0,38.1,8.26Z" transform="translate(1.03 1.002)" fill="none" stroke="#8f4f1f" stroke-width="2"/>
</svg>
